# xmcd CD database file
#
# Track frame offsets:
#	150
#	9207
#	22105
#	31672
#	42400
#	51607
#	62855
#	72680
#	84457
#	92700
#	102927
#	114137
#
# Disc length: 1695 seconds
#
# Revision: 1
# Processed by: cddbd v1.5.2PL0 Copyright (c) Steve Scherf et al.
# Submitted via: CDex 1.83
#
DISCID=9b069d0c
DTITLE=Nancy Wilson - Today Tomorrow Forever
DYEAR=1964
DGENRE=Jazz
TTITLE0=One Note Samba
TTITLE1=Go Away, Little Boy
TTITLE2=Unchain My Heart
TTITLE3=I Left My Heart In San Francisco
TTITLE4=Wives And Lovers
TTITLE5=The Good Life
TTITLE6=What Kind Of Fool Am I?
TTITLE7=I Can't Stop Loving You
TTITLE8=On Broadway
TTITLE9=Our Day Will Come
TTITLE10=Call Me Irresponsible
TTITLE11=Tonight May Have To Last Me All My Life
EXTD=YEAR: 1964
EXTT0=
EXTT1=
EXTT2=
EXTT3=
EXTT4=
EXTT5=
EXTT6=
EXTT7=
EXTT8=
EXTT9=
EXTT10=
EXTT11=
PLAYORDER=
